<!-- icon666.com - MILLIONS vector ICONS FREE --><svg clip-rule="evenodd" fill-rule="evenodd" image-rendering="optimizeQuality" shape-rendering="geometricPrecision" text-rendering="geometricPrecision" viewBox="0 0 542 542" xmlns="http://www.w3.org/2000/svg"><g id="Layer_x0020_1"><path d="m284 85c-110 0-199 89-199 199 0 51 19 99 52 134 35 32 82 52 134 52 110 0 199-89 199-199 0-52-20-99-52-134-35-33-83-52-134-52z" fill="#e83f44"></path><path d="m196 226c-8-8-8-22 0-30s22-8 30 0l45 45 45-45c8-8 21-8 30 0 8 8 8 22 0 30l-45 45 45 45c8 8 8 21 0 30-9 8-22 8-30 0l-45-45-45 45c-8 8-22 8-30 0-8-9-8-22 0-30l45-45zm75-196c133 0 241 108 241 241s-108 241-241 241-241-108-241-241 108-241 241-241zm0 42c-110 0-199 89-199 199s89 199 199 199 199-89 199-199-89-199-199-199z" fill-rule="nonzero"></path></g></svg>